# xmcd
#
# Track frame offsets:
#	150
#	10697
#	22912
#	35467
#	50045
#	63640
#	83640
#	107242
#	121965
#	137595
#	147947
#	163492
#	179377
#	195452
#	214400
#	231005
#
# Disc length: 3275
#
# Revision: 1
# Processed by: cddbd v1.5.1PL0 Copyright (c) Steve Scherf et al.
# Submitted via: CDnGo 2.00
# Normalized: r0:DSETVAR1
#
DISCID=e10cc910
DTITLE=Various Artist - Lo Mejor de Brasil
DYEAR=1995
DGENRE=Samba/Bossa Nova
TTITLE0=Astrud Gulberto - Agua de beber
TTITLE1=Elis Regina - Madalena
TTITLE2=Antonio Carlos Jobim - Desafinado
TTITLE3=Caetano Veloso - Coisa mais linda
TTITLE4=Edu Lobo and Tamba Trio - Reza
TTITLE5=Elis Regina - Dois pra la, dois pra ca
TTITLE6=Astrud and Joao Gilberto - The girl from Ipanema
TTITLE7=Gal Costa - Na baixa do sapateiro
TTITLE8=Joao Bosco - Coisa feita
TTITLE9=Antonio Carlos Jobin - One note samba
TTITLE10=Badel Powell - Lamento
TTITLE11=Ney Matogrosso - Tanto amar
TTITLE12=Elis Regina and Antonio Carlos Jobim - Aguas de Março
TTITLE13=Elba Ramalho - Corcel na tempestade
TTITLE14=Astrud Gilberto - Tu meu delirio
TTITLE15=Antonio Carlos Jobim - Meditation
EXTD=
EXTT0=
EXTT1=
EXTT2=
EXTT3=
EXTT4=
EXTT5=
EXTT6=
EXTT7=
EXTT8=
EXTT9=
EXTT10=
EXTT11=
EXTT12=
EXTT13=
EXTT14=
EXTT15=
PLAYORDER=
